# xmcd CD database file
#
# Track frame offsets:
#	150
#	7428
#	36919
#	44986
#	56670
#	78750
#	88498
#	95718
#	111313
#	140807
#	169231
#
# Disc length: 2944 seconds
#
# Revision: 0
# Processed by: cddbd v1.5.2PL0 Copyright (c) Steve Scherf et al.
# Submitted via: CDex 1.51
#
DISCID=aa0b7e0b
DTITLE=LSO - Bliss - Bliss Orchestral Music
DYEAR=1959
DGENRE=Orchestral
TTITLE0=Antiphonal Fanfare for Three Brass Choirs
TTITLE1=Flourish for Two Brass Orchestras, 'Greetings to a City'
TTITLE2=Fanfare for The Lord Mayor of London
TTITLE3=Things to Come Suite -I- Prologue
TTITLE4=Things to Come Suite -II- March
TTITLE5=Things to Come Suite -III- Building of the New World
TTITLE6=Things to Come Suite -IV- Attack on the Moon Gun
TTITLE7=Things to Come Suite -V- Epilogue
TTITLE8=Welcome to The Queen
TTITLE9=Theme and Cadenza for Solo Violin and Orchestra
TTITLE10=Introduction and Allegro1 
EXTD=YEAR: 1959
EXTT0=
EXTT1=
EXTT2=
EXTT3=
EXTT4=
EXTT5=
EXTT6=
EXTT7=
EXTT8=
EXTT9=
EXTT10=
PLAYORDER=
